# xmcd
#
# Track frame offsets:
#	180
#	12010
#	25658
#	45752
#	64575
#	81142
#	98844
#	115098
#	133554
#	150048
#	164150
#	176907
#	190456
#	202380
#	214230
#
# Disc length: 3102 seconds
#
# Revision: 1
# Processed by: cddbd v1.5.1PL0 Copyright (c) Steve Scherf et al.
# Submitted via: audiograbber 1.82.02
#
DISCID=c30c1c0f
DTITLE=Various Artist - Sound Choice 8131 Country Hits Vol 12
DYEAR=1900
DGENRE=Karaoke
TTITLE0=Patty Loveless - Timber I'm Falling in love
TTITLE1=Brooks and Dunn - My next broken heart
TTITLE2=Leroy Parnel - On the road
TTITLE3=Dwight Yoakam - Fast as you
TTITLE4=Tanya Tucker and T. Graham Browm - Don't go out ( with him - with her )
TTITLE5=Mcbride and the Ride - Just one night
TTITLE6=Rodney Crowell - If looks could kill
TTITLE7=Trisha Yearwood - The song remembers when
TTITLE8=Mark Collie - Born to love you
TTITLE9=Doug Stone  - Warning labels
TTITLE10=Tanya Tucker - Walking shoes
TTITLE11=Sawyer Brown - The dirt road
TTITLE12=Tracy Byrd - Holdin' Heaven
TTITLE13=Sammy Kershaw - Anywhere but here
TTITLE14=Billy Ray Cyrus - In the heart of a woman
EXTD=
EXTT0=
EXTT1=
EXTT2=
EXTT3=
EXTT4=
EXTT5=
EXTT6=
EXTT7=
EXTT8=
EXTT9=
EXTT10=
EXTT11=
EXTT12=
EXTT13=
EXTT14=
PLAYORDER=
